<svg xmlns="http://www.w3.org/2000/svg" width="512" height="512" viewBox="0 0 512 512">
  <defs>
    <linearGradient id="bg" x1="0" y1="0" x2="1" y2="1">
      <stop offset="0" stop-color="#2563eb"/>
      <stop offset="1" stop-color="#22d3ee"/>
    </linearGradient>
  </defs>
  <rect x="16" y="16" width="480" height="480" rx="110" fill="url(#bg)"/>
  <!-- containers empilhados -->
  <rect x="150" y="128" width="100" height="64" rx="12" fill="#ffffff" fill-opacity="0.95"/>
  <rect x="262" y="128" width="100" height="64" rx="12" fill="#ffffff" fill-opacity="0.75"/>
  <rect x="94"  y="204" width="100" height="64" rx="12" fill="#ffffff" fill-opacity="0.75"/>
  <rect x="206" y="204" width="100" height="64" rx="12" fill="#ffffff" fill-opacity="0.95"/>
  <rect x="318" y="204" width="100" height="64" rx="12" fill="#ffffff" fill-opacity="0.75"/>
  <!-- deck -->
  <rect x="72" y="292" width="368" height="26" rx="13" fill="#0d1117" fill-opacity="0.85"/>
  <!-- ondas -->
  <rect x="96"  y="352" width="130" height="22" rx="11" fill="#ffffff" fill-opacity="0.9"/>
  <rect x="250" y="352" width="166" height="22" rx="11" fill="#ffffff" fill-opacity="0.55"/>
  <rect x="140" y="398" width="160" height="22" rx="11" fill="#ffffff" fill-opacity="0.55"/>
  <rect x="324" y="398" width="92"  height="22" rx="11" fill="#ffffff" fill-opacity="0.9"/>
</svg>
